<svg id="Layer_1" data-name="Layer 1" xmlns="http://www.w3.org/2000/svg" viewBox="0 0 590.85 167.79"><defs><style>.cls-1{fill:#fff;}</style></defs><title>Artboard 1</title><path class="cls-1" d="M163.61,4.57a2.85,2.85,0,0,1,.65-.12l18.08.09a.89.89,0,0,1,.27,0c2.55.86,5.12.25,7.68.11a2.12,2.12,0,0,1,1,0c2.05,1,4.21.39,6.32.52a10.77,10.77,0,0,1,6,2.47c.74.58,1.59,1.05,2.29,1.68,2.59,2.31,3.74,5.3,4.45,8.66a35.9,35.9,0,0,1,.47,12.09c-.67,5.14-.18,10.26-.67,15.38-.47,5-.37,10-.66,14.94a40.5,40.5,0,0,1-1,7.68c-.76,2.95-2.05,5.74-4.77,7.54a14.94,14.94,0,0,0-1.28,1c-1.68,1.4-1.66,2.82-.06,4.33,1.31,1.24,2.57,2.55,3.75,3.92a6.42,6.42,0,0,1,.91,1.92c1.31,3.4,1.28,7,1.34,10.53.07,3.78.38,7.65-.25,11.34-.75,4.4-.17,8.72-.32,13.06-.12,3.44-.7,6.86-.85,10.31-.16,3.77,0,7.56-.08,11.34A30.77,30.77,0,0,1,204,156a12.78,12.78,0,0,1-4.81,5.22,15.94,15.94,0,0,1-9.31,2.4c-2-.07-4,.5-6,.47-3.29,0-6.59-.63-9.85-.45-4.54.25-9.12-.54-13.64.54-1.6.38-2.69-.78-2.67-2.44,0-.23,0-.46,0-.68.22-2.48.52-5,.64-7.44.16-3.09.21-6.19.23-9.29,0-3.78-.07-7.57-.06-11.35a7.32,7.32,0,0,1,.46-1.85,4,4,0,0,0,.36-1.17c-.19-3.24.94-6.45,0-9.75-.32-1.16.39-2.57.41-3.86.06-3.28.08-6.56,0-9.83a46.49,46.49,0,0,1,.73-11.82c.4-1.83.08-3.81.08-5.73,0-1,0-1.94,0-2.91,0-1.92,0-3.84.1-5.75.06-1.27.28-2.53.43-3.79a3.85,3.85,0,0,0,.1-.95c-.77-5.39.9-10.75.08-16.16-.2-1.32.66-2.78.58-4.15-.28-5.13.45-10.17.93-15.25.26-2.7-.18-5.47-.08-8.2.17-4.86.52-9.72.79-14.58,0-.86.1-1.73.1-2.59C163.62,11.31,163.61,8,163.61,4.57Zm23.55,121.75h0c0-2.46-.1-4.93,0-7.38s.58-5,.73-7.56c.28-4.62-.85-9.29.43-13.89a2,2,0,0,0,0-.68c-.13-1.63-.19-3.26-.43-4.87a5.58,5.58,0,0,0-.91-2.14c-1-1.5-2.64-1.4-4.17-1.55A1.46,1.46,0,0,0,181,89.5a56.63,56.63,0,0,0-.56,5.94c-.08,2.64.15,5.29,0,7.92-.19,3.3-.82,6.58-.93,9.88-.14,4.13.15,8.27.08,12.41,0,3.16-.34,6.32-.53,9.48-.21,3.5-.46,7-.62,10.5a2.69,2.69,0,0,0,2.89,3.07h1a4.28,4.28,0,0,0,4.32-4.13c.17-2.57.51-5.14.58-7.72C187.24,133.34,187.17,129.83,187.17,126.32ZM190.52,28h.23c-.05-.86-.08-1.73-.15-2.59-.32-3.54-1.67-4.78-5.18-4.76-2,0-3.2,1.55-3.14,3.56.11,4.18.12,8.38,0,12.56-.09,3.09-.62,6.18-.69,9.27-.16,6.52-.15,13-.18,19.57a11.47,11.47,0,0,0,.33,2.71,1.34,1.34,0,0,0,.89.84c2.41.29,5.7-.13,6-3.91.09-1,0-2,.05-3,.1-2.08.22-4.17.37-6.24.05-.71.35-1.41.38-2.13.18-3.75.32-7.51.47-11.27Q190.22,35.3,190.52,28Z"/><path class="cls-1" d="M370.08,24.66c0-5.11,0-10.22,0-15.32a10.36,10.36,0,0,0-.29-2c-.46-2.21.38-3.53,2.57-3.56,7.76-.11,15.51-.14,23.27-.17,2,0,3.92.12,5.88.16,1,0,1.53.57,1.37,1.46-.76,4.18.63,8.32.13,12.5-.14,1.18-.45,1.83-1.62,1.88-1.81.08-3.63.11-5.44.12-.82,0-1.63-.13-2.45-.14-3,0-3,.09-3.38,3.3-.16,1.48.19,3,.12,4.5-.29,6.07-.7,12.13-1,18.2-.1,2.31.1,4.63,0,6.95-.07,3.32-.28,6.64-.33,10a11.15,11.15,0,0,0,.48,3.23A2.33,2.33,0,0,0,392,67.58q3.53-.34,7-.86c1.44-.22,2.4.28,2.45,1.71.12,3.5.1,7,.15,10.52,0,.68.07,1.36.09,2,.06,2.05-.86,2.91-2.87,2.87-2.83-.06-5.66-.09-8.48,0A2,2,0,0,0,388.89,85a14.85,14.85,0,0,0-.39,3.47c0,1,.1,2,.09,2.94-.05,4.47-.14,8.94-.19,13.41,0,3.66-.07,7.33,0,11,0,4.74.2,9.48.15,14.22,0,3.41-.23,6.83-.56,10.22a9.31,9.31,0,0,0,.49,4.94c.64,1.41,2,1.62,3.21,1.63,2.12,0,4.24-.22,6.36-.34,2-.1,2.22.07,2.2,2,0,4.1-.17,8.2-.3,12.29,0,1.11-.53,1.68-1.8,1.68q-9.31,0-18.62.09c-2.78,0-5.55.26-8.33.31-2.56,0-3.18-.53-3.2-3.08,0-1.8.27-3.61.42-5.41.08-1,.22-2,.22-3,0-7.08,0-14.15,0-21.23,0-5.93-.23-11.86-.2-17.79s.29-12.13.35-18.19c0-4.74-.14-9.48-.11-14.22,0-1.58.43-3.16.51-4.74.16-3.09.35-6.18.28-9.27-.08-3.51-.48-7,.35-10.48a2.3,2.3,0,0,0,.06-.95c-.91-4.65.27-9.26.22-13.9,0-2.28,0-4.56,0-6.85Q370.09,29.18,370.08,24.66Z"/><path class="cls-1" d="M213.37,24.66c0-5.11,0-10.22,0-15.32a10.36,10.36,0,0,0-.29-2c-.46-2.21.38-3.53,2.57-3.56,7.76-.11,15.51-.14,23.27-.17,2,0,3.92.12,5.88.16,1,0,1.53.57,1.37,1.46-.76,4.18.63,8.32.13,12.5-.14,1.18-.45,1.83-1.62,1.88-1.81.08-3.63.11-5.44.12-.82,0-1.63-.13-2.45-.14-3,0-3,.09-3.38,3.3-.16,1.48.19,3,.12,4.5-.29,6.07-.7,12.13-1,18.2-.1,2.31.1,4.63,0,6.95-.07,3.32-.28,6.64-.33,10a11.15,11.15,0,0,0,.48,3.23,2.33,2.33,0,0,0,2.53,1.87q3.53-.34,7-.86c1.44-.22,2.4.28,2.45,1.71.12,3.5.1,7,.15,10.52,0,.68.07,1.36.09,2,.06,2.05-.86,2.91-2.87,2.87-2.83-.06-5.66-.09-8.48,0A2,2,0,0,0,232.17,85a14.85,14.85,0,0,0-.39,3.47c0,1,.1,2,.09,2.94-.05,4.47-.14,8.94-.19,13.41,0,3.66-.07,7.33,0,11,0,4.74.2,9.48.15,14.22,0,3.41-.23,6.83-.56,10.22a9.31,9.31,0,0,0,.49,4.94c.64,1.41,2,1.62,3.21,1.63,2.12,0,4.24-.22,6.36-.34,2-.1,2.22.07,2.2,2,0,4.1-.17,8.2-.3,12.29,0,1.11-.53,1.68-1.8,1.68q-9.31,0-18.62.09c-2.78,0-5.55.26-8.33.31-2.56,0-3.18-.53-3.2-3.08,0-1.8.27-3.61.42-5.41.08-1,.22-2,.22-3,0-7.08,0-14.15,0-21.23,0-5.93-.23-11.86-.2-17.79s.29-12.13.35-18.19c0-4.74-.14-9.48-.11-14.22,0-1.58.43-3.16.51-4.74.16-3.09.35-6.18.28-9.27-.08-3.51-.48-7,.35-10.48a2.3,2.3,0,0,0,.06-.95c-.91-4.65.27-9.26.22-13.9,0-2.28,0-4.56,0-6.85Q213.37,29.18,213.37,24.66Z"/><path class="cls-1" d="M537.31,23.64c0,4.51.08,9,0,13.52-.07,3-.57,6-.61,9.07-.07,5.66.34,11.33,0,17A65.53,65.53,0,0,1,534.36,76c-.48,1.79-2.21,3.26-3.46,4.81-.68.85-1.55,1.54-2.31,2.33a1.72,1.72,0,0,0,0,2.72c.77.78,1.41,1.7,2.24,2.39,2.53,2.12,3.42,4.93,3.73,8.09.23,2.35.69,4.67,1.05,7a1.73,1.73,0,0,1,.07.4q-.45,4.59-.91,9.19c0,.45-.13.9-.14,1.35-.08,6.75-.19,13.49-.22,20.24,0,4.24.15,8.48.09,12.71,0,2.49-.45,5-.56,7.47-.09,2.14,0,4.28,0,6.43s-.39,2.55-2.64,2.67c-1,.05-2,.48-3,.63a2.84,2.84,0,0,1-1.68-.13,6.38,6.38,0,0,0-4.57-.74,33.82,33.82,0,0,1-5.3.37c-1.63.05-2.22-.49-2.3-2.16-.05-1,.11-2.09.15-3.14.14-4.15.46-8.3.36-12.44-.19-8.39.6-16.74.77-25.12.1-5.09.32-10.17.38-15.25,0-2.77-.13-5.54-.24-8.31-.12-2.94-2.83-3.8-4.69-3.73-1.36.05-2.45,1.27-2.51,3-.11,3,0,5.93,0,8.9s-.33,5.88-.45,8.83c-.11,2.78-.17,5.56-.2,8.34-.07,5.7.47,11.48-.3,17.09-.8,5.79-.18,11.45-.21,17.17,0,1.41-.1,2.83-.09,4.24,0,1.1-.42,1.75-1.57,1.77l-7.38.18c-2.5.06-5,.17-7.5.15a10.21,10.21,0,0,1-2.75-.55c-.22-.07-.44-.57-.44-.88a75.83,75.83,0,0,1,0-9.83c.43-3.89-.3-7.69-.19-11.54.14-4.79.15-9.58.21-14.37,0-1.73-.06-3.46,0-5.18.21-4.75.58-9.49.7-14.24.07-2.82-.31-5.64-.31-8.47,0-2.13.29-4.26.45-6.39.07-1,.08-2,.19-3,.24-2.12.58-4.22.77-6.34a24.57,24.57,0,0,0-.11-3.2c-.05-1.16-.13-2.33-.15-3.49,0-1.8-.07-3.6,0-5.4,0-1.53.19-3.05.24-4.58.07-2,.08-4.08.11-6.12,0-1.44,0-2.88.05-4.32,0-1,0-2,.1-3,.14-2.17.33-4.33.48-6.49,0-.44,0-.89-.05-1.34-.05-1.75-.14-3.51-.14-5.26,0-.76.26-1.52.27-2.29,0-2.48,0-5,0-7.45,0-2.07,0-4.14.2-6.2.17-2.3.6-4.59.73-6.89.19-3.4.2-6.8.32-10.2a2.2,2.2,0,0,1,2.32-2.23c2-.11,4.1,0,6.15,0,4.38,0,8.76,0,13.13,0a28.9,28.9,0,0,1,3.24.4,2.88,2.88,0,0,0,1.21.09c2.42-.89,4.91-.13,7.12.35,5.16,1.12,9.49,3.62,11.44,9.16A27.25,27.25,0,0,1,537.31,23.64Zm-27,44.85h-.45c.1,1.45.29,2.91.27,4.36a2.15,2.15,0,0,0,2,2.35c1.24,0,3-.47,3.59-1.37A7.76,7.76,0,0,0,517,68.14,5.59,5.59,0,0,1,517,66a21.35,21.35,0,0,0,0-9.48,4.49,4.49,0,0,1,.08-1.22c.15-1.81.41-3.63.43-5.44.08-6.93.1-13.86.11-20.79,0-1.86,0-3.72-.14-5.57a3,3,0,0,0-2.29-2.93c-1.12-.18-2.38.41-3.56.73-.18,0-.31.44-.37.69a9.74,9.74,0,0,0-.41,2c-.1,2.69-.1,5.39-.2,8.09-.13,3.4-.34,6.79-.48,10.19,0,1,.08,2.09.08,3.14Q510.31,56.94,510.31,68.49Z"/><path class="cls-1" d="M455.54,26.95c0-5.11,0-10.22,0-15.32a10.36,10.36,0,0,0-.29-2c-.46-2.21.38-3.53,2.57-3.56,7.76-.11,15.51-.14,23.27-.17,2,0,3.92.12,5.88.16,1,0,1.53.57,1.37,1.46-.76,4.18.63,8.32.13,12.5-.14,1.18-.45,1.83-1.62,1.88-1.81.08-3.63.11-5.44.12-.82,0-1.63-.13-2.45-.14-3,0-3,.09-3.38,3.3-.16,1.48.19,3,.12,4.5-.29,6.07-.7,12.13-1,18.2-.1,2.31.1,4.63,0,6.95-.07,3.32-.28,6.64-.33,10a11.15,11.15,0,0,0,.48,3.23,2.33,2.33,0,0,0,2.53,1.87q3.53-.34,7-.86c1.44-.22,2.4.28,2.45,1.71.12,3.5.1,7,.15,10.52,0,.68.07,1.36.09,2,.06,2.05-.86,2.91-2.87,2.87-2.83-.06-5.66-.09-8.48,0a2,2,0,0,0-1.48,1.13,14.85,14.85,0,0,0-.39,3.47c0,1,.1,2,.09,2.94-.05,4.47-.14,8.94-.19,13.41,0,3.66-.07,7.33,0,11,0,4.74.2,9.48.15,14.22,0,3.41-.23,6.83-.56,10.22a9.31,9.31,0,0,0,.49,4.94c.64,1.41,2,1.62,3.21,1.63,2.12,0,4.24-.22,6.36-.34,2-.1,2.22.07,2.2,2,0,4.1-.17,8.2-.3,12.29,0,1.11-.53,1.68-1.8,1.68q-9.31,0-18.62.09c-2.78,0-5.55.26-8.33.31-2.56,0-3.18-.53-3.2-3.08,0-1.8.27-3.61.42-5.41.08-1,.22-2,.22-3,0-7.08,0-14.15,0-21.23,0-5.93-.23-11.86-.2-17.79s.29-12.13.35-18.19c0-4.74-.14-9.48-.11-14.22,0-1.58.43-3.16.51-4.74.16-3.09.35-6.18.28-9.27-.08-3.51-.48-7,.35-10.48a2.3,2.3,0,0,0,.06-.95c-.91-4.65.27-9.26.22-13.9,0-2.28,0-4.56,0-6.85Q455.54,31.46,455.54,26.95Z"/><path class="cls-1" d="M38.3,146.47c-2.12.11-8.81.34-10.93.34-1.25,0-2.57-.22-3.21-1.63a9.31,9.31,0,0,1-.49-4.94,71.71,71.71,0,0,0,.56-7.94c.05-4.74-.12-9.48-.15-14.22,0-3.66,0-7.33,0-11,0-4.47.14-8.94.19-13.41,0-1-.13-2-.09-2.94a14.85,14.85,0,0,1,.39-3.47.87.87,0,0,1,.05-.11V66.51a2.4,2.4,0,0,1,.1-.65,9.22,9.22,0,0,1-.06-1.09c0-3.32.26-6.64.33-10,0-2.31-.15-4.64,0-6.95.27-6.07.68-12.13,1-18.2.07-1.5-.28-3-.12-4.5a7.34,7.34,0,0,1,.54-2.64V6.84c-.27-.32-.56-.63-.83-.94C19.71,5.92,13.89,6,8.07,6,5.88,6.07,5,7.39,5.5,9.6a10.36,10.36,0,0,1,.29,2c0,5.11,0,10.22,0,15.32q0,4.52,0,9c0,2.28,0,4.56,0,6.85,0,4.63-1.13,9.25-.22,13.9a2.3,2.3,0,0,1-.06.95c-.83,3.47-.44,7-.35,10.48.07,3.09-.12,6.18-.28,9.27-.08,1.59-.5,3.16-.51,4.74,0,4.74.15,9.48.11,14.22-.05,6.07-.32,12.13-.35,18.19s.17,11.86.2,17.79c0,7.08,0,14.15,0,21.23,0,1-.14,2-.22,3-.15,1.8-.43,3.61-.42,5.41,0,2.56.64,3.13,3.2,3.08,2.78,0,5.55-.28,8.33-.31,6.21-.08,17-.11,23.19-.09,1.27,0,1.77-.57,1.8-1.68.13-4.1.25-10.48.3-14.57C40.52,146.54,40.25,146.37,38.3,146.47Z"/><path class="cls-1" d="M249,24.66c0-5.11,0-10.22,0-15.32a10.36,10.36,0,0,0-.29-2c-.46-2.21.38-3.53,2.57-3.56,7.76-.11,15.51-.14,23.27-.17,2,0,3.92.12,5.88.16,1,0,1.53.57,1.37,1.46-.76,4.18.63,8.32.13,12.5-.14,1.18-.45,1.83-1.62,1.88-1.81.08-3.63.11-5.44.12-.82,0-1.63-.13-2.45-.14-3,0-3,.09-3.38,3.3-.16,1.48.19,3,.12,4.5-.29,6.07-.7,12.13-1,18.2-.1,2.31.1,4.63,0,6.95-.07,3.32-.28,6.64-.33,10a11.15,11.15,0,0,0,.48,3.23,2.33,2.33,0,0,0,2.53,1.87q3.53-.34,7-.86c1.44-.22,2.4.28,2.45,1.71.12,3.5.1,7,.15,10.52,0,.68.07,1.36.09,2,.06,2.05-.86,2.91-2.87,2.87-2.83-.06-5.66-.09-8.48,0A2,2,0,0,0,267.8,85a14.85,14.85,0,0,0-.39,3.47c0,1,.1,2,.09,2.94-.05,4.47-.14,8.94-.19,13.41,0,3.66-.07,7.33,0,11,0,4.74.2,9.48.15,14.22,0,3.41-.23,6.83-.56,10.22a9.31,9.31,0,0,0,.49,4.94c.64,1.41,2,1.62,3.21,1.63,2.12,0,4.24-.22,6.36-.34,2-.1,2.22.07,2.2,2,0,4.1-.17,8.2-.3,12.29,0,1.11-.53,1.68-1.8,1.68q-9.31,0-18.62.09c-2.78,0-5.55.26-8.33.31-2.56,0-3.18-.53-3.2-3.08,0-1.8.27-3.61.42-5.41.08-1,.22-2,.22-3,0-7.08,0-14.15,0-21.23,0-5.93-.23-11.86-.2-17.79s.29-12.13.35-18.19c0-4.74-.14-9.48-.11-14.22,0-1.58.43-3.16.51-4.74.16-3.09.35-6.18.28-9.27-.08-3.51-.48-7,.35-10.48a2.3,2.3,0,0,0,.06-.95c-.91-4.65.27-9.26.22-13.9,0-2.28,0-4.56,0-6.85Q249,29.18,249,24.66Z"/><path class="cls-1" d="M331.07,2.29c-.15,1.74-.26,3.49-.45,5.23-.22,2-.46,4-.77,6-.28,1.84-.71,3.66-1,5.5-.64,4.14-1.17,8.3-1.87,12.44s-1.78,8.16-2.24,12.29c-.42,3.79-1.79,7.41-1.58,11.34.13,2.4-.61,4.84-1,7.26-.47,3-1,6-1.44,9a11,11,0,0,0,.35,2.54c.6,5.25,1.06,10.52,1.8,15.75.9,6.4,2,12.77,3,19.16.5,3.15.92,6.31,1.4,9.47.53,3.52,1,7,1.66,10.54a27.82,27.82,0,0,0,1.23,4.18,7.59,7.59,0,0,0,1,1.5c.25-.29.43-.4.45-.55a38,38,0,0,0,.75-9.75c-.1-1.53.21-3.08.25-4.62,0-1.3-.07-2.6-.12-3.9,0-.27-.08-.54-.07-.81.12-4.78.43-9.56.29-14.33-.05-1.77.36-3.53.09-5.22-.52-3.35.09-6.65.14-10,.1-7.88.45-15.77.62-23.65.09-4.19-.09-8.39,0-12.58.25-8.46.63-16.92.93-25.38.12-3.42.17-6.84.25-10.25a1.5,1.5,0,0,1,0-.41,28.86,28.86,0,0,0,1-8.65c0-.4.73-1.09,1.17-1.14,1.57-.17,3.17-.14,4.75-.16,1.36,0,2.72-.05,4.07,0,3.09.09,6.18.26,9.27.3,2,0,3.91-.12,5.87-.15a42.59,42.59,0,0,1,4.62.09,1.69,1.69,0,0,1,1.18,1.07A20.49,20.49,0,0,1,367,8.25c-.05,2.31-.38,4.63-.26,6.93.22,4.15-.11,4.65-4.19,4.61-1.77,0-3.54-.15-5.31-.27a2.62,2.62,0,0,0-2.53,2c-.06,2,.07,4.1,0,6.14-.16,3.08-.58,6.16-.68,9.24-.12,4.1.07,8.21-.06,12.31-.11,3.45-.62,6.88-.7,10.33a27.15,27.15,0,0,0,.66,6.08c.36,1.73,1.3,2.22,3.12,2,1.54-.18,3.06-.48,4.6-.67a10.7,10.7,0,0,1,1.9,0c1.75.1,2.12,1.54,2.09,3-.05,2.71-.22,5.41-.29,8.12,0,1.35,0,2.7,0,4.05A1.68,1.68,0,0,1,363.49,84c-1.46,0-2.91-.1-4.37-.16-1.09,0-2.18-.14-3.28-.15-2.31,0-2.93.6-3,2.92-.06,2.69-.09,5.38-.11,8.08,0,5.48,0,11-.12,16.43-.17,7-.44,14-.75,21-.13,3-.53,6-.7,9a9.32,9.32,0,0,0,.39,2.69c.54,2.18,1.07,2.62,3.27,2.57,1.9,0,3.79-.18,5.69-.33s2.66.41,2.66,2.41q0,6.08,0,12.17c0,2.37-.62,2.62-2.88,2.33a61.27,61.27,0,0,0-7.36-.14c-.71,0-1.42,0-2.12,0s-1.55-.17-2.32-.16c-4.77,0-9.53.1-14.3.08a27.12,27.12,0,0,1-3.06-.54c-1.28-.16-2.57-.27-3.86-.31-1.63,0-3.27-.07-4.9,0a21.82,21.82,0,0,0-4.55.54c-2.12.58-3.4-.16-3.58-2.36-.44-5.67-.81-11.34-1.36-17-.33-3.38-1-6.73-1.38-10.1-.28-2.17-.42-4.35-.65-6.53-.36-3.43-.75-6.87-1.1-10.3-.17-1.66-.18-3.34-.41-5-.33-2.41-.8-4.79-1.21-7.19,0-.18-.08-.36-.11-.54-.34-2.79-.68-5.58-1-8.36-.14-1.1-.36-2.66-1.54-2.51s-.66,1.73-.66,2.71c0,5.08.14,10.17.21,15.25.08,5.88.13,11.77.21,17.65,0,2,.15,4,.15,6,0,6-.08,12-.06,18.05,0,1.59.37,3.17.38,4.76a23.63,23.63,0,0,1-.42,4.79,1.93,1.93,0,0,1-2.21,1.42c-1.29-.07-2.58,0-3.87,0-1.09,0-2.17-.23-3.26-.25-1.71,0-3.43.09-5.15,0a23.79,23.79,0,0,1-3.62-.43c-.23,0-.51-.61-.51-.93,0-1.82.22-3.64.2-5.47s-.25-3.62-.35-5.44c0-.72.08-1.44.09-2.16,0-1.9-.05-3.8.09-5.69s.35-3.53-.39-5.25a2.24,2.24,0,0,1-.09-1.22,25.73,25.73,0,0,0-.29-9,11.24,11.24,0,0,1,0-2.12c.08-3.35.23-6.7.23-10.06,0-2.27-.28-4.55-.33-6.82-.11-4.92-.12-9.85-.25-14.78-.14-5.56-.38-11.11-.51-16.67,0-1.58.21-3.17.19-4.75,0-2.31-.23-4.62-.25-6.93,0-1.21.27-2.43.36-3.64a28.78,28.78,0,0,0,.08-3.41c-.16-3.22-.37-6.43-.59-9.65-.05-.77-.25-1.53-.3-2.29-.06-1.12-.09-2.25,0-3.37.17-3.86.46-7.71.55-11.57s0-7.58-.1-11.36c0-1.49-.32-3-.49-4.47a2.61,2.61,0,0,1-.11-.67,37.65,37.65,0,0,0,0-9,1.78,1.78,0,0,1,1.92-2.11c2.14-.09,4.28-.17,6.42-.27s4.26-.24,6.39-.37c.5,0,1-.16,1.5-.17,2.37,0,3.13.71,3.17,3.07.05,3-.11,6.11.23,9.13.49,4.43-.5,8.79-.28,13.21.28,5.87.1,11.77.26,17.65.12,4.23.46,8.45.72,12.68a7.82,7.82,0,0,0,.23,1.09,1.64,1.64,0,0,0,1.55-1.67q.55-5.15,1.05-10.3c.4-4.12.76-8.24,1.16-12.35.17-1.71.34-3.42.59-5.12.63-4.1,1.3-8.2,2-12.3,0-.18.09-.36.11-.54.3-3.39.51-6.78.95-10.15a40.74,40.74,0,0,1,1.31-5.1Z"/><path class="cls-1" d="M451.83,37.15c.11-4.5,0-9,0-13.52a27.25,27.25,0,0,0-1.12-9.41c-2-5.54-6.28-8-11.44-9.16-2.22-.48-4.7-1.24-7.12-.35A2.88,2.88,0,0,1,431,4.62a28.9,28.9,0,0,0-3.24-.4c-4.38,0-8.76,0-13.13,0-2.05,0-4.11-.07-6.15,0a2.2,2.2,0,0,0-2.32,2.23c-.12,3.4-.13,6.8-.32,10.2-.13,2.3-.56,4.59-.73,6.89-.15,2.06-.17,4.13-.2,6.2,0,2.48,0,5,0,7.45,0,.76-.27,1.52-.27,2.29,0,1.75.09,3.51.14,5.26,0,.45.08.9.05,1.34-.15,2.17-.33,4.33-.48,6.49-.07,1-.08,2-.1,3,0,1.44,0,2.88-.05,4.32,0,2,0,4.08-.11,6.12,0,1.53-.21,3.05-.24,4.58,0,1.8,0,3.6,0,5.4,0,1.17.1,2.33.15,3.49a24.57,24.57,0,0,1,.11,3.2c-.19,2.12-.53,4.23-.77,6.34-.11,1-.12,2-.19,3-.15,2.13-.45,4.26-.45,6.39,0,2.82.38,5.65.31,8.47-.12,4.75-.48,9.49-.7,14.24-.08,1.72,0,3.45,0,5.18-.06,4.79-.06,9.58-.21,14.37-.12,3.85.62,7.65.19,11.54a75.82,75.82,0,0,0,0,9.83c0,.31.22.82.44.88a10.22,10.22,0,0,0,2.75.55c2.5,0,5-.09,7.5-.15l7.38-.18c1.15,0,1.58-.67,1.57-1.77,0-1.41.08-2.83.09-4.24,0-5.72-.59-11.39.21-17.17.77-5.6.24-11.38.3-17.09,0-2.78.09-5.56.2-8.34.12-2.94.37-5.88.45-8.83s-.08-5.93,0-8.9a3.83,3.83,0,0,1,.35-1.49c7.32.12,19.56-2.8,23.31-9.83,3-5.63,3.79-13.84,4.11-20.15,0,0,0,0,0,0,.08-.71.16-1.43.21-2.14.36-5.63-.06-11.31,0-17C451.27,43.2,451.76,40.18,451.83,37.15Zm-27.07,5.08c.13-3.4.35-6.79.48-10.19.1-2.69.1-5.39.2-8.09a9.74,9.74,0,0,1,.41-2c.06-.25.2-.64.37-.69,1.18-.32,2.44-.91,3.56-.73a3,3,0,0,1,2.29,2.93c.14,1.85.14,3.72.14,5.57,0,6.93,0,13.86-.11,20.79,0,1.82-.28,3.63-.43,5.44a4.49,4.49,0,0,0-.08,1.22,21.35,21.35,0,0,1,0,9.48,5.6,5.6,0,0,0,0,2.17,7.76,7.76,0,0,1-1.31,5.69c-.62.89-2.36,1.37-3.59,1.37a2.15,2.15,0,0,1-2-2.35c0-1.45-.17-2.91-.27-4.36h0c0-7.7.46-15.41.45-23.11C424.85,44.33,424.73,43.28,424.77,42.24Zm-.52,26.26Z"/><path class="cls-1" d="M93.09,24.31c0-1.59,0-3.18.09-4.77-.14-1-.38-2-.47-3a27.18,27.18,0,0,0-2.32-5c-2.89-4.54-5.93-7.08-11.17-8.16l-1.92.07-.24,0a101.76,101.76,0,0,0-13.79-.25c-5.2.2-10.11,1.35-13.66,5.75-1.06,1.31-2.4,2.37-2.37,4.26A2,2,0,0,1,47,14.29c-1.85,2.82-1.88,6.08-2,9.23-.23,4.73-.1,9.49-.15,14.23,0,2.38-.06,4.77-.18,7.15-.1,2.09-.47,4.17-.48,6.25,0,4.84.23,9.67.15,14.51-.05,3.13-.62,6.24-.72,9.37-.13,4.33-.08,8.67,0,13,0,2.29-1,4.58,0,6.88.07.18-.06.44-.08.67-.21,1.9-.55,3.8-.59,5.7-.13,5.92-.12,11.84-.21,17.77-.11,7.38-.27,14.76-.37,22.14,0,1,.25,2.07.25,3.11,0,.13,0,.25,0,.38,1.6,8.79,4.33,18.42,14.32,20.16l.17,0h0a2.26,2.26,0,0,1,.6.24l.73,0,.22,0a101.76,101.76,0,0,0,13.79.25c5.2-.2,10.11-1.35,13.66-5.75,1.06-1.31,2.4-2.37,2.37-4.26a2,2,0,0,1,.27-1.05c1.85-2.82,1.88-6.08,2-9.23.23-4.73.1-9.49.15-14.23,0-2.38.06-4.77.18-7.15.1-2.09.47-4.17.48-6.25,0-4.84-.23-9.67-.15-14.51.05-3.13.62-6.24.72-9.37.13-4.33.08-8.67,0-13,0-2.29,1-4.58,0-6.88-.07-.18.06-.44.08-.67.21-1.9.55-3.8.59-5.7.13-5.92.12-11.84.21-17.77.11-7.38.27-14.76.37-22.14C93.35,26.39,93.09,25.35,93.09,24.31ZM70.82,76.17C70,79.64,70.22,83,70.2,86.49q-.09,15.68-.17,31.35c0,7.26,0,14.52,0,21.78a37.24,37.24,0,0,1-.46,5.58,2.82,2.82,0,0,1-4.71,1.68,2.92,2.92,0,0,1-1-1.32q0-12.16,0-24.31c0-.14,0-.27,0-.41,0-1.17.11-2.34.22-3.51.39-4.3.37-8.63.34-13,.07-1.25.14-2.5.18-3.75.1-2.73-.42-5.58.19-8.18.81-3.47.59-6.87.61-10.32q.09-15.68.17-31.35c0-7.26,0-14.52,0-21.78a37.26,37.26,0,0,1,.46-5.58,2.82,2.82,0,0,1,4.71-1.68,2.92,2.92,0,0,1,1,1.32q0,12.16,0,24.31c0,.14,0,.27,0,.41,0,1.17-.11,2.34-.22,3.51-.39,4.3-.37,8.63-.34,13-.07,1.25-.14,2.5-.18,3.75C70.91,70.73,71.43,73.58,70.82,76.17Z"/><path class="cls-1" d="M587.16,108.35c-.07-3.36-.32-6.72-.44-10.07-.13-3.81.31-7.6.09-11.41a2.49,2.49,0,0,1,0-.48A11.73,11.73,0,0,0,581.18,78c-3-1.73-6.36-1.84-9.73-1.69a21,21,0,0,1-8-.88,2.05,2.05,0,0,1-1.67-1.49,2.26,2.26,0,0,1-.2-.9c0-1-.13-2.09-.14-3.14a2.16,2.16,0,0,1,.17-.85,2.39,2.39,0,0,0-.19-.3q.06-9,.1-18c0-7.26,0-14.52,0-21.78a37.26,37.26,0,0,1,.46-5.58,2.82,2.82,0,0,1,4.71-1.68,3.7,3.7,0,0,1,1.2,3.32c-.07,3.83-.16,7.66-.18,11.5,0,4.91.18,9.8-.27,14.74-.53,5.88-.3,11.84-.32,17.76,0,2.74,1.38,3.69,4.08,3.25,1.78-.29,3.61-.29,5.42-.41l8.71-.55c.89-.06,1.19-.52,1.19-1.45,0-8.95,0-17.89,0-26.84h0c0-8.45,0-16.89,0-25.34,0-1.36.2-3-.42-4-1.21-2.06-2-4.41-4-6A17.33,17.33,0,0,0,573,3.43a101.76,101.76,0,0,0-13.79-.25c-5.2.2-10.11,1.35-13.66,5.75-1.06,1.31-2.4,2.37-2.37,4.26a2,2,0,0,1-.27,1.05c-1.85,2.82-1.88,6.08-2,9.23-.23,4.73-.1,9.49-.15,14.23,0,2.38-.06,4.77-.18,7.15-.1,2.09-.47,4.17-.48,6.25,0,4.81.23,9.63.15,14.44v0c.58,6.89.55,9.31,1.65,15.93,0,0,.29,9.15,12.94,10.26,2.63,0,5.26.1,7.89.1a2.51,2.51,0,0,1,.4,0,2.47,2.47,0,0,1,.45,0,2.78,2.78,0,0,1,2.53,3.31c.14.11-.15-.08,0,0-.05,8.3-.11,14.33-.14,22.63,0,7.26,0,14.52,0,21.78a37.24,37.24,0,0,1-.46,5.58,2.82,2.82,0,0,1-4.71,1.68,3.7,3.7,0,0,1-1.2-3.32c.07-3.83.16-7.66.18-11.5,0-4.91-.18-9.8.27-14.74.53-5.88.3-11.84.32-17.76,0-2.74-1.38-3.69-4.08-3.25-1.78.29-3.61.29-5.42.41l-8.71.55c-.89.06-1.19.52-1.19,1.45,0,8.95,0,17.89,0,26.84h0c0,8.45,0,16.89,0,25.34,0,1.36-.2,3,.42,4,1.21,2.06,2,4.41,4,6a19.12,19.12,0,0,0,6.61,3.64c.29.07.55.15.85.21l.17,0a13.62,13.62,0,0,0,1.55.25,101.76,101.76,0,0,0,13.79.25c5.2-.2,10.11-1.35,13.66-5.75,1.06-1.31,2.4-2.37,2.37-4.26a2,2,0,0,1,.27-1.05c1.85-2.82,1.88-6.08,2-9.23.23-4.73.1-9.49.15-14.23,0-2.38.06-4.77.18-7.15,0-.52.07-1,.12-1.55a2.47,2.47,0,0,1-.07-.57A118.05,118.05,0,0,1,587.16,108.35Z"/><path class="cls-1" d="M142.73,108.35c-.07-3.36-.32-6.72-.44-10.07-.13-3.81.31-7.6.09-11.41a2.49,2.49,0,0,1,0-.48A11.73,11.73,0,0,0,136.74,78c-3-1.73-6.36-1.84-9.73-1.69a21,21,0,0,1-8-.88,2.05,2.05,0,0,1-1.67-1.49,2.26,2.26,0,0,1-.2-.9c0-1-.13-2.09-.14-3.14a2.16,2.16,0,0,1,.17-.85,2.39,2.39,0,0,0-.19-.3q.06-9,.1-18c0-7.26,0-14.52,0-21.78a37.26,37.26,0,0,1,.46-5.58,2.82,2.82,0,0,1,4.71-1.68,3.7,3.7,0,0,1,1.2,3.32c-.07,3.83-.16,7.66-.18,11.5,0,4.91.18,9.8-.27,14.74-.53,5.88-.3,11.84-.32,17.76,0,2.74,1.38,3.69,4.08,3.25,1.78-.29,3.61-.29,5.42-.41l8.71-.55c.89-.06,1.19-.52,1.19-1.45,0-8.95,0-17.89,0-26.84h0c0-8.45,0-16.89,0-25.34,0-1.36.2-3-.42-4-1.21-2.06-2-4.41-4-6a17.33,17.33,0,0,0-9.19-4.15,101.76,101.76,0,0,0-13.79-.25c-5.2.2-10.11,1.35-13.66,5.75-1.06,1.31-2.4,2.37-2.37,4.26a2,2,0,0,1-.27,1.05c-1.85,2.82-1.88,6.08-2,9.23-.23,4.73-.1,9.49-.15,14.23,0,2.38-.06,4.77-.18,7.15-.1,2.09-.47,4.17-.48,6.25,0,4.81.23,9.63.15,14.44v0c.58,6.89.55,9.31,1.65,15.93,0,0,.29,9.15,12.94,10.26,2.63,0,5.26.1,7.89.1a2.51,2.51,0,0,1,.4,0,2.47,2.47,0,0,1,.45,0,2.78,2.78,0,0,1,2.53,3.31c.14.11-.15-.08,0,0-.05,8.3-.11,14.33-.14,22.63,0,7.26,0,14.52,0,21.78a37.24,37.24,0,0,1-.46,5.58,2.82,2.82,0,0,1-4.71,1.68,3.7,3.7,0,0,1-1.2-3.32c.07-3.83.16-7.66.18-11.5,0-4.91-.18-9.8.27-14.74.53-5.88.3-11.84.32-17.76,0-2.74-1.38-3.69-4.08-3.25-1.78.29-3.61.29-5.42.41l-8.71.55c-.89.06-1.19.52-1.19,1.45,0,8.95,0,17.89,0,26.84h0c0,8.45,0,16.89,0,25.34,0,1.36-.2,3,.42,4,1.21,2.06,2,4.41,4,6a19.12,19.12,0,0,0,6.61,3.64c.29.07.55.15.85.21l.17,0a13.62,13.62,0,0,0,1.55.25,101.76,101.76,0,0,0,13.79.25c5.2-.2,10.11-1.35,13.66-5.75,1.06-1.31,2.4-2.37,2.37-4.26a2,2,0,0,1,.27-1.05c1.85-2.82,1.88-6.08,2-9.23.23-4.73.1-9.49.15-14.23,0-2.38.06-4.77.18-7.15,0-.52.07-1,.12-1.55a2.47,2.47,0,0,1-.07-.57A118.05,118.05,0,0,1,142.73,108.35Z"/></svg>